<?xml version="1.0" encoding="UTF-8"?>
<svg version="1.1" xmlns="http://www.w3.org/2000/svg" width="334" height="347">
<path d="M0 0 C110.22 0 220.44 0 334 0 C334 114.51 334 229.02 334 347 C223.78 347 113.56 347 0 347 C0 232.49 0 117.98 0 0 Z " fill="#141414" transform="translate(0,0)"/>
<path d="M0 0 C-6.59669169 13.55211586 -13.76679747 26.77887156 -21 40 C-23.87523714 39.68957083 -26.75017727 39.37672481 -29.625 39.0625 C-30.43324219 38.97548828 -31.24148437 38.88847656 -32.07421875 38.79882812 C-33.26337891 38.66831055 -33.26337891 38.66831055 -34.4765625 38.53515625 C-35.5605835 38.41732788 -35.5605835 38.41732788 -36.66650391 38.29711914 C-38.41157604 38.07492278 -40.1490267 37.79135171 -41.87988281 37.47705078 C-80.75378665 31.53341948 -128.08900035 40.84752228 -160.05859375 63.83984375 C-178.66949781 77.82306601 -190.79030731 94.53552349 -197 117 C-197.26586914 117.95942505 -197.26586914 117.95942505 -197.53710938 118.93823242 C-199.90775795 129.49737126 -198.17862814 141.85927541 -195 152 C-194.67128906 153.07765625 -194.34257812 154.1553125 -194.00390625 155.265625 C-188.9381391 170.05976852 -178.31991249 181.9379477 -165 190 C-168 191 -168 191 -171.00390625 189.62890625 C-172.19787602 188.95366555 -173.38370247 188.26389161 -174.5625 187.5625 C-175.18584229 187.19705078 -175.80918457 186.83160156 -176.45141602 186.45507812 C-185.22191735 181.19931322 -192.6733064 175.05215549 -199 167 C-199.6703125 166.154375 -200.340625 165.30875 -201.03125 164.4375 C-208.64048197 154.44328488 -212.63391861 144.02879084 -216 132 C-216.176521 131.38455322 -216.35304199 130.76910645 -216.53491211 130.13500977 C-221.85800839 105.69906386 -212.99992372 81.33617823 -200.09375 61.05859375 C-175.41591328 25.00869422 -134.36581905 5.22912688 -92.5078125 -3 C-62.56879059 -8.55378627 -29.36219081 -8.57157123 0 0 Z " fill="#FCFCFC" transform="translate(279,83)"/>
<path d="M0 0 C0.90363281 0.00338379 1.80726563 0.00676758 2.73828125 0.01025391 C33.3791335 0.23899638 33.3791335 0.23899638 44.1875 3.125 C44.5175 3.785 44.8475 4.445 45.1875 5.125 C44.29467773 7.28881836 44.29467773 7.28881836 42.87109375 9.96484375 C42.35353516 10.94646484 41.83597656 11.92808594 41.30273438 12.93945312 C40.47225586 14.48536133 40.47225586 14.48536133 39.625 16.0625 C38.83512695 17.55620117 38.83512695 17.55620117 38.02929688 19.08007812 C34.47088146 25.79185065 30.83809679 32.4630096 27.1875 39.125 C14.94140625 38.22265625 14.94140625 38.22265625 9.96875 37.60546875 C-5.00644723 35.91725185 -20.20042352 36.45719133 -34.8125 40.125 C-35.53630859 40.29128906 -36.26011719 40.45757812 -37.00585938 40.62890625 C-54.58717824 44.67575714 -70.37723118 52.13067658 -80.75 67.625 C-86.91378665 78.14995645 -88.65760541 88.27474865 -86.12109375 100.44140625 C-83.2978015 109.69093694 -78.86420877 117.05974074 -71.1328125 122.93359375 C-70.69710937 123.32675781 -70.26140625 123.71992188 -69.8125 124.125 C-69.8125 124.785 -69.8125 125.445 -69.8125 126.125 C-76.30342249 123.83408618 -81.19689409 120.18018742 -85.8125 115.125 C-86.43253906 114.44824219 -87.05257812 113.77148438 -87.69140625 113.07421875 C-100.09763557 98.69052593 -102.1087134 82.469775 -100.8125 64.125 C-97.71070493 46.36500765 -85.11107247 30.97311112 -70.8125 20.625 C-50.24634335 6.50441769 -24.77455495 -0.13648596 0 0 Z " fill="#FCFCFC" transform="translate(197.8125,147.875)"/>
<path d="M0 0 C-1.34927545 4.53847198 -3.19159348 8.31932246 -5.625 12.375 C-6.57246094 13.96441406 -6.57246094 13.96441406 -7.5390625 15.5859375 C-8.02117187 16.38257813 -8.50328125 17.17921875 -9 18 C-9.70640625 17.9278125 -10.4128125 17.855625 -11.140625 17.78125 C-30.3459752 16.04408265 -52.82149168 14.61654608 -70 25 C-74.66346058 29.17141041 -78.64737348 33.15001211 -79.23828125 39.6015625 C-79.39392715 45.94208494 -78.89070738 50.53711853 -75.875 56.16015625 C-75 58 -75 58 -75 61 C-81.39716829 58.48682674 -84.38563575 52.37702118 -87.0078125 46.3671875 C-89.38822021 38.28879598 -89.81748793 28.35311995 -85.8125 20.75 C-83.54232731 17.4462012 -81.04531059 14.62038353 -78 12 C-77.18982422 11.29617187 -77.18982422 11.29617187 -76.36328125 10.578125 C-55.97558028 -6.00558145 -24.41418102 -6.66923969 0 0 Z " fill="#FAFAFA" transform="translate(214,211)"/>
<path d="M0 0 C3.465 1.98 3.465 1.98 7 4 C4 5 4 5 0.8125 3.5625 C-0.115625 3.046875 -1.04375 2.53125 -2 2 C-1.34 1.34 -0.68 0.68 0 0 Z " fill="#E8E8E8" transform="translate(107,269)"/>
</svg>
